<?xml version="1.0" encoding="utf-8"?>
<!-- Generator: Adobe Illustrator 22.0.0, SVG Export Plug-In . SVG Version: 6.00 Build 0)  -->
<svg version="1.1" id="Layer_1" xmlns="http://www.w3.org/2000/svg" xmlns:xlink="http://www.w3.org/1999/xlink" x="0px" y="0px"
	 viewBox="0 0 300 165" enable-background="new 0 0 300 165" xml:space="preserve">
<linearGradient id="SVGID_1_" gradientUnits="userSpaceOnUse" x1="4.0758" y1="56.9718" x2="292.4373" y2="56.9718">
	<stop  offset="0" style="stop-color:#C4E0F4"/>
	<stop  offset="5.861253e-02" style="stop-color:#BBDDF3"/>
	<stop  offset="0.1561" style="stop-color:#A1D4EF"/>
	<stop  offset="0.2805" style="stop-color:#78C5E9"/>
	<stop  offset="0.4253" style="stop-color:#3FB2E2"/>
	<stop  offset="0.5674" style="stop-color:#009CD9"/>
	<stop  offset="0.8652" style="stop-color:#0076C1"/>
	<stop  offset="0.9944" style="stop-color:#005B99"/>
</linearGradient>
<path fill-rule="evenodd" clip-rule="evenodd" fill="url(#SVGID_1_)" d="M177.8,31c37.5,15.1,65,45.2,78.5,81h36.2
	c-13.8-43.3-46.1-80.6-91.2-98.8c-78.5-31.6-165.8,6.4-195.1,85c-0.7,2-1.4,4-2,5.9C33,36.1,109.4,3.4,177.8,31z"/>
<linearGradient id="SVGID_2_" gradientUnits="userSpaceOnUse" x1="18.5602" y1="71.8308" x2="243.2167" y2="71.8308">
	<stop  offset="0" style="stop-color:#C4E0F4"/>
	<stop  offset="5.861253e-02" style="stop-color:#BBDDF3"/>
	<stop  offset="0.1561" style="stop-color:#A1D4EF"/>
	<stop  offset="0.2805" style="stop-color:#78C5E9"/>
	<stop  offset="0.4253" style="stop-color:#3FB2E2"/>
	<stop  offset="0.5674" style="stop-color:#009CD9"/>
	<stop  offset="0.8652" style="stop-color:#0076C1"/>
	<stop  offset="0.9944" style="stop-color:#005B99"/>
</linearGradient>
<path fill-rule="evenodd" clip-rule="evenodd" fill="url(#SVGID_2_)" d="M151,52.9c28.5,11,49.5,32.9,59.8,59h32.4
	c-10.5-31.6-37.1-58.7-71.5-71.9c-59.8-23-129.3,4.7-151.6,61.9c-0.6,1.4-1.1,2.9-1.6,4.3C40.6,56.6,98.8,32.8,151,52.9z"/>
<g>
	<path fill="#384751" d="M28.1,155.9c-0.3,0-0.8,0-1.3-0.2c-0.7-0.2-1.7-0.8-2.9-3.8c-2-5.2-7.3-19.4-7.8-20.7
		c-0.4-1.1-0.5-1.2-0.7-1.2c-0.1,0-0.2,0.1-0.4,0.6c-0.1,0.2-0.2,0.4-0.3,0.8l-7.6,21.3c-0.6,1.7-1.3,3-2.8,3.2
		c-0.3,0-0.7,0.1-1,0.1c-0.2,0-0.3,0.1-0.3,0.2c0,0.2,0.2,0.3,0.6,0.3c1.6,0,3.4-0.1,3.8-0.1c0.4,0,1.8,0.1,2.6,0.1
		c0.3,0,0.5-0.1,0.5-0.3c0-0.1-0.1-0.2-0.3-0.2H9.8c-0.6,0-1.3-0.3-1.3-1c0-0.6,0.2-1.4,0.5-2.3l2-6.1c0.1-0.2,0.2-0.3,0.3-0.3h3.6
		h3.6c0.2,0,0.2,0.1,0.3,0.2l3.1,8.5c0.2,0.5,0,0.9-0.2,0.9c-0.1,0-0.2,0.1-0.2,0.2c0,0.2,0.4,0.2,1,0.2c2.3,0.1,4.7,0.1,5.2,0.1
		c0.4,0,0.7-0.1,0.7-0.3C28.4,155.9,28.3,155.9,28.1,155.9z M18.1,145h-3.2h-3.2c-0.1,0-0.2-0.1-0.1-0.2l2.9-9.3
		c0.1-0.4,0.2-0.5,0.4-0.3c0,0.1,0.1,0.2,0.1,0.3l3.2,9.3C18.3,144.9,18.3,145,18.1,145z"/>
	<path fill="#384751" d="M35.1,146.1l-0.6-0.5c-2.2-1.8-2.8-2.6-2.8-4c0-1.7,1.3-2.8,2.9-2.8c2.1,0,2.8,1,2.9,1.3
		c0.1,0.3,0.3,0.9,0.3,1.2c0,0.2,0.1,0.3,0.2,0.3c0.1,0,0.2-0.2,0.2-0.5c0-1.6,0.1-2.4,0.1-2.5c0-0.1,0-0.2-0.2-0.2
		c-0.2,0-0.4,0-0.8-0.1c-0.6-0.1-1.3-0.2-2.2-0.2c-2.9,0-4.8,1.7-4.8,4.3c0,1.6,0.6,3.1,3,5.2l1,0.9c2,1.7,2.7,2.6,2.7,4.3
		c0,1.5-1.1,3.2-3.3,3.2c-1.6,0-3.1-0.7-3.4-2.4c-0.1-0.3-0.1-0.7-0.1-0.9c0-0.2,0-0.3-0.2-0.3c-0.1,0-0.2,0.1-0.2,0.4
		c0,0.4-0.1,1.3-0.1,2.5c0,0.6,0,0.7,0.3,0.9c0.9,0.5,2,0.6,3.1,0.6c1.3,0,2.5-0.3,3.5-1c1.6-1.2,2-3,2-4
		C38.5,149.8,37.8,148.3,35.1,146.1z"/>
	<path fill="#384751" d="M51.5,139.2L51.5,139.2c-6.5,0-9.2,5.5-9.2,9.4c0,4.3,2.7,9.4,9.1,9.4l0.1,0c5.6-0.1,9.2-4.5,9.2-9.8
		C60.7,142.6,56.8,139.2,51.5,139.2z M52,157.1c-0.2,0-0.3,0-0.5,0c-4-0.3-7-3.8-7-9.2c0-5.3,2.9-7.9,6.8-7.9l0.1,0
		c3.6,0.1,7,3.2,7,8.9C58.4,155.8,54.1,157.1,52,157.1z"/>
	<path fill="#384751" d="M79.4,153.3c-0.1,0-0.2,0.1-0.2,0.4c-0.1,0.4-0.4,1.5-0.9,2c-0.9,1-2.3,1.2-4.1,1.2c-5,0-8.4-4.2-8.4-8.8
		c0-2.5,0.4-4.6,2.1-6.3c0.8-0.8,2.3-1.8,5.4-1.8c2.1,0,3.9,0.6,4.7,1.4c0.6,0.5,1,1.5,1,2.4c0,0.3,0,0.5,0.2,0.5
		c0.1,0,0.2-0.1,0.2-0.5c0-0.4,0-1.7,0.1-2.5c0-0.9,0.1-1.1,0.1-1.3c0-0.1-0.1-0.2-0.3-0.3c-0.7,0-1.5-0.2-2.4-0.4
		c-1.1-0.2-2.5-0.3-3.4-0.3c-3.6,0-5.7,1.1-7.1,2.6c-2.1,2.1-2.6,5-2.6,6.6c0,2.3,0.6,5,2.8,7.1c1.8,1.7,4.2,2.6,7.7,2.6
		c1.5,0,3.3-0.2,4.2-0.5c0.4-0.2,0.5-0.2,0.6-0.7c0.2-0.8,0.5-2.9,0.5-3.1C79.5,153.5,79.5,153.3,79.4,153.3z"/>
	<path fill="#384751" d="M89.2,157.3c-0.2,0-0.7,0-1-0.1c-0.7-0.1-0.8-0.6-0.9-1.3c-0.1-1-0.1-2.9-0.1-5.2v-4.2c0-3.7,0-4.4,0-5.2
		c0-0.8,0.2-1.2,0.9-1.4c0.3-0.1,0.4-0.1,0.6-0.1c0.1,0,0.2,0,0.2-0.1c0-0.1-0.1-0.2-0.4-0.2c-0.7,0-2.2,0.1-2.3,0.1
		c-0.1,0-1.6-0.1-2.4-0.1c-0.3,0-0.4,0-0.4,0.2c0,0.1,0.1,0.1,0.2,0.1c0.2,0,0.5,0,0.7,0.1c0.5,0.1,0.7,0.5,0.8,1.3
		c0,0.8,0,1.4,0,5.2v4.2c0,2.3,0,4.2-0.1,5.2c-0.1,0.7-0.2,1.2-0.7,1.3c-0.2,0.1-0.5,0.1-0.7,0.1c-0.1,0-0.2,0.1-0.2,0.1
		c0,0.2,0.1,0.2,0.4,0.2c0.7,0,2.2-0.1,2.3-0.1c0.1,0,1.6,0.1,2.9,0.1c0.3,0,0.4-0.1,0.4-0.2C89.4,157.4,89.3,157.3,89.2,157.3z"/>
	<path fill="#384751" d="M108.2,157.3c-0.2,0-0.6,0-0.9-0.1c-0.5-0.1-1.2-0.5-2-2.7c-1.4-3.7-5.1-13.6-5.4-14.5
		c-0.3-0.7-0.4-0.9-0.5-0.9c-0.1,0-0.2,0.1-0.3,0.4c-0.1,0.1-0.1,0.3-0.2,0.5L93.5,155c-0.4,1.2-0.9,2.1-2,2.3c-0.2,0-0.5,0-0.7,0
		c-0.1,0-0.2,0-0.2,0.1c0,0.2,0.1,0.2,0.4,0.2c1.1,0,2.4-0.1,2.6-0.1c0.3,0,1.3,0.1,1.8,0.1c0.2,0,0.3,0,0.3-0.2
		c0-0.1-0.1-0.1-0.2-0.1h-0.2c-0.4,0-0.9-0.2-0.9-0.7c0-0.4,0.1-1,0.3-1.6l1.4-4.3c0-0.1,0.1-0.2,0.2-0.2H99h2.5
		c0.1,0,0.2,0,0.2,0.1l2.2,5.9c0.1,0.4,0,0.6-0.1,0.6c-0.1,0-0.2,0.1-0.2,0.2c0,0.1,0.3,0.1,0.7,0.2c1.6,0,3.3,0,3.7,0
		c0.3,0,0.5,0,0.5-0.2C108.5,157.4,108.4,157.3,108.2,157.3z M101.2,149.7H99h-2.2c-0.1,0-0.1,0-0.1-0.2l2.1-6.5
		c0.1-0.3,0.2-0.3,0.3-0.2c0,0,0.1,0.1,0.1,0.2l2.2,6.5C101.4,149.6,101.4,149.7,101.2,149.7z"/>
	<path fill="#384751" d="M124.8,153.3c-0.1,0-0.2,0.1-0.2,0.4c-0.1,0.4-0.4,1.5-0.9,2c-0.9,1-2.3,1.2-4.1,1.2c-5,0-8.4-4.2-8.4-8.8
		c0-2.5,0.4-4.6,2.1-6.3c0.8-0.8,2.3-1.8,5.4-1.8c2.1,0,3.9,0.6,4.7,1.4c0.6,0.5,1,1.5,1,2.4c0,0.3,0,0.5,0.2,0.5
		c0.1,0,0.2-0.1,0.2-0.5c0-0.4,0-1.7,0.1-2.5c0-0.9,0.1-1.1,0.1-1.3c0-0.1,0-0.2-0.3-0.3c-0.8,0-1.5-0.2-2.4-0.4
		c-1.1-0.2-2.5-0.3-3.4-0.3c-3.6,0-5.7,1.1-7.1,2.6c-2.1,2.1-2.6,5-2.6,6.6c0,2.3,0.6,5,2.8,7.1c1.8,1.7,4.2,2.6,7.7,2.6
		c1.5,0,3.3-0.2,4.2-0.5c0.4-0.2,0.5-0.2,0.6-0.7c0.2-0.8,0.5-2.9,0.5-3.1C125,153.5,125,153.3,124.8,153.3z"/>
	<path fill="#384751" d="M134.7,157.3c-0.2,0-0.7,0-1-0.1c-0.7-0.1-0.8-0.6-0.9-1.3c-0.1-1-0.1-2.9-0.1-5.2v-4.2c0-3.7,0-4.4,0-5.2
		c0-0.8,0.2-1.2,0.9-1.4c0.3-0.1,0.4-0.1,0.6-0.1c0.1,0,0.2,0,0.2-0.1c0-0.1-0.1-0.2-0.4-0.2c-0.7,0-2.2,0.1-2.3,0.1
		c-0.1,0-1.6-0.1-2.4-0.1c-0.3,0-0.4,0-0.4,0.2c0,0.1,0.1,0.1,0.2,0.1c0.2,0,0.5,0,0.7,0.1c0.5,0.1,0.8,0.5,0.8,1.3
		c0.1,0.8,0.1,1.4,0.1,5.2v4.2c0,2.3,0,4.2-0.1,5.2c-0.1,0.7-0.2,1.2-0.7,1.3c-0.2,0.1-0.5,0.1-0.7,0.1c-0.1,0-0.2,0.1-0.2,0.1
		c0,0.2,0.1,0.2,0.4,0.2c0.7,0,2.2-0.1,2.3-0.1c0.1,0,1.6,0.1,2.9,0.1c0.3,0,0.4-0.1,0.4-0.2C134.8,157.4,134.8,157.3,134.7,157.3z"
		/>
	<path fill="#384751" d="M147.4,139.2L147.4,139.2c-6.5,0-9.2,5.5-9.2,9.4c0,4.3,2.7,9.4,9.1,9.4l0.1,0c5.6-0.1,9.2-4.5,9.2-9.8
		C156.6,142.6,152.7,139.2,147.4,139.2z M147.9,157.1c-0.2,0-0.3,0-0.5,0c-4-0.3-7-3.8-7-9.2c0-5.3,2.9-7.9,6.8-7.9l0.1,0
		c3.6,0.1,7,3.2,7,8.9C154.4,155.8,150,157.1,147.9,157.1z"/>
	<path fill="#384751" d="M146.3,137.7c0,0,0.2,0,0.3-0.1c0.2-0.1,0.5-0.2,0.8-0.3c0.8-0.3,1.9-0.6,2.8-0.7c0.4-0.1,0.6,0,0.7,0
		c0.1,0,0.2-0.1,0.1-0.3c-0.3-0.5-0.4-0.8-0.6-1.1c-0.1-0.2-0.2-0.2-0.2-0.2c-0.1,0-0.3,0.1-0.7,0.3c-0.1,0.1-1.2,0.7-2.1,1.3
		c-0.4,0.3-0.8,0.5-1.1,0.7c-0.1,0.1-0.2,0.1-0.2,0.2C146.2,137.6,146.2,137.7,146.3,137.7z"/>
	<path fill="#384751" d="M178,139.5c-1,0-1.7,0.1-2,0.1c-0.3,0-1.4-0.1-2.4-0.1c-0.3,0-0.5,0-0.5,0.2c0,0.1,0,0.2,0.2,0.2
		c0.2,0,0.7,0,1.1,0.1c0.7,0.2,0.9,0.7,0.9,2.3l0.3,12.2c-0.8-0.8-3.3-3.7-5.6-6.3c-3.6-4-7.1-7.8-7.4-8.2c-0.2-0.2-0.6-0.8-0.8-0.8
		c-0.2,0-0.2,0.3-0.2,1.2l0,13.8c0,2.2-0.1,2.9-0.7,3.1c-0.3,0.1-0.8,0.1-1,0.1c-0.1,0-0.2,0-0.2,0.1c0,0.2,0.1,0.2,0.4,0.2
		c1.1,0,2-0.1,2.2-0.1c0.2,0,1.1,0.1,2.5,0.1c0.3,0,0.4,0,0.4-0.2c0-0.1-0.1-0.1-0.2-0.1c-0.2,0-0.7,0-1.2-0.1
		c-0.6-0.2-0.9-0.8-0.9-2.8l-0.3-11.5c0.7,0.9,3.4,3.9,6.1,6.9c2.5,2.7,5.8,6.3,6.1,6.5c1.2,1.3,1.5,1.5,1.7,1.5
		c0.2,0,0.2-0.1,0.2-1.7l0-14.1c0-1.4,0.1-2,0.9-2.1c0.3-0.1,0.4-0.1,0.6-0.1c0.2,0,0.3-0.1,0.3-0.2
		C178.5,139.5,178.3,139.5,178,139.5z"/>
	<path fill="#384751" d="M199.8,139.6c-1.4-0.2-2.7-0.1-3.7-0.1c-1.4,0-2.9,0.1-3.1,0.1c-0.1,0-1.6-0.1-2.6-0.1
		c-0.3,0-0.4,0-0.4,0.2c0,0.1,0.1,0.1,0.2,0.1c0.2,0,0.6,0,0.8,0.1c0.8,0.2,1,0.6,1,1.4c0,0.8,0,1.4,0,5.2v4.2c0,2.3,0,4.2-0.1,5.2
		c-0.1,0.7-0.2,1.2-0.7,1.3c-0.2,0.1-0.5,0.1-0.7,0.1c-0.1,0-0.2,0.1-0.2,0.1c0,0.2,0.1,0.2,0.4,0.2c0.7,0,2.2-0.1,2.3-0.1
		c0.2,0,3.2,0.3,5.2,0.3c0.6,0,1.1,0,1.6-0.1c2.9-0.4,4.6-1.7,5.4-2.7c1.3-1.4,2.5-3.7,2.5-6.8c0-2.9-1.1-4.9-2.3-6.1
		C203.9,140.5,201.8,139.9,199.8,139.6z M203.8,154.8c-1,1.1-2.4,1.8-4,2.1c-0.5,0.1-1,0.1-1.6,0.1c-2.8,0-3.7-0.5-4-1
		c-0.2-0.3-0.2-1.2-0.3-1.8c0-0.5,0-2.7,0-5.2v-3c0-1.9,0-4.3,0-5.1c0-0.3,0.1-0.4,0.3-0.5c0.2-0.1,1-0.2,1.5-0.2
		c1.4,0,2.7,0.1,4,0.5c1.3,0.4,2.5,1.1,3.6,2.2c1,1,2.2,3,2.2,6.1C205.7,151.3,205,153.6,203.8,154.8z"/>
	<path fill="#384751" d="M221.4,154.4c-0.1,0-0.2,0.1-0.2,0.4c-0.2,1-0.4,1.5-1,1.7c-0.6,0.3-1.6,0.3-2.3,0.3c-2.3,0-2.6-0.3-2.7-2
		c0-0.5,0-3.3,0-4.1v-2.1c0-0.1,0.1-0.2,0.2-0.2c0.4,0,2.7,0,3.3,0.1c0.9,0.1,1.1,0.5,1.2,0.8c0.1,0.3,0.1,0.6,0.1,0.8
		c0,0.1,0,0.2,0.2,0.2c0.2,0,0.2-0.3,0.2-0.5c0-0.2,0.1-1.1,0.1-1.5c0.1-0.8,0.2-1.2,0.2-1.3c0-0.1,0-0.2-0.1-0.2
		c-0.1,0-0.2,0.1-0.3,0.3c-0.2,0.2-0.5,0.3-1.1,0.3c-0.5,0-3.4,0-3.7,0c-0.1,0-0.1-0.1-0.1-0.2v-6.6c0-0.2,0.1-0.2,0.1-0.2
		c0.3,0,2.8,0,3.2,0.1c1.3,0.1,1.5,0.4,1.7,0.8c0.1,0.3,0.1,0.7,0.1,0.9c0,0.2,0.1,0.3,0.2,0.3c0.1,0,0.1-0.1,0.2-0.3
		c0.1-0.3,0.1-1.3,0.1-1.6c0.1-0.7,0.2-1,0.2-1.1c0-0.1,0-0.2-0.1-0.2c-0.1,0-0.2,0.1-0.3,0.1c-0.2,0.1-0.6,0.1-1,0.1
		c-0.5,0-5.2,0-5.3,0c-0.1,0-1.6-0.1-2.6-0.1c-0.3,0-0.4,0-0.4,0.2c0,0.1,0.1,0.1,0.2,0.1c0.2,0,0.6,0,0.8,0.1c0.8,0.2,1,0.6,1,1.4
		c0,0.8,0,1.4,0,5.2v4.2c0,2.3,0,4.2-0.1,5.2c-0.1,0.7-0.2,1.2-0.7,1.3c-0.2,0.1-0.5,0.1-0.7,0.1c-0.1,0-0.2,0.1-0.2,0.1
		c0,0.2,0.1,0.2,0.4,0.2c0.3,0,0.9,0,1.3,0c0.5,0,0.9,0,0.9,0c0.7,0,2.2,0.2,5.8,0.2c0.9,0,1.1,0,1.3-0.6c0.1-0.5,0.3-2.1,0.3-2.3
		C221.5,154.6,221.5,154.4,221.4,154.4z"/>
	<path fill="#384751" d="M258.7,157.2c-0.3,0-0.8,0-1.4-0.2c-0.7-0.2-1.7-0.8-2.9-3.8c-2.1-5.3-7.4-19.6-7.9-20.9
		c-0.4-1.1-0.5-1.3-0.7-1.3c-0.1,0-0.3,0.1-0.4,0.6c-0.1,0.2-0.2,0.4-0.3,0.8l-7.6,21.5c-0.6,1.7-1.3,3-2.8,3.3
		c-0.3,0-0.7,0.1-1,0.1c-0.2,0-0.3,0.1-0.3,0.2c0,0.2,0.2,0.3,0.6,0.3c1.6,0,3.4-0.1,3.8-0.1c0.4,0,1.8,0.1,2.6,0.1
		c0.3,0,0.5-0.1,0.5-0.3c0-0.1-0.1-0.2-0.3-0.2h-0.3c-0.6,0-1.3-0.3-1.3-1c0-0.6,0.2-1.5,0.5-2.3l2-6.1c0.1-0.2,0.2-0.3,0.3-0.3h3.6
		h3.6c0.2,0,0.2,0.1,0.3,0.2l3.1,8.5c0.2,0.5,0,0.9-0.2,0.9c-0.1,0-0.2,0.1-0.2,0.2c0,0.2,0.4,0.2,1,0.2c2.3,0.1,4.8,0.1,5.3,0.1
		c0.4,0,0.7-0.1,0.7-0.3C259,157.2,258.9,157.2,258.7,157.2z M248.6,146.2h-3.2h-3.2c-0.1,0-0.2-0.1-0.1-0.2l3-9.4
		c0.1-0.4,0.2-0.5,0.4-0.3c0,0.1,0.1,0.2,0.1,0.3l3.2,9.4C248.8,146.1,248.8,146.2,248.6,146.2z"/>
	<path fill="#384751" d="M275.5,131.2c-0.1,0-0.3,0.1-0.5,0.2c-0.3,0.1-0.8,0.1-1.5,0.1c-0.8,0-7.6,0-8.3,0c-0.2,0-2.3-0.1-3.8-0.1
		c-0.4,0-0.5,0.1-0.5,0.3c0,0.1,0.1,0.2,0.3,0.2c0.3,0,0.9,0,1.1,0.1c1.1,0.2,1.4,0.8,1.4,2c0.1,1.1,0.1,2.1,0.1,7.5v6.1
		c0,3.3,0,6.1-0.2,7.5c-0.1,1-0.3,1.8-1,1.9c-0.3,0.1-0.7,0.1-1,0.1c-0.2,0-0.3,0.1-0.3,0.2c0,0.2,0.2,0.3,0.5,0.3
		c1,0,3.1-0.1,3.3-0.1c0.2,0,2.3,0.1,4.1,0.1c0.4,0,0.5-0.1,0.5-0.3c0-0.1-0.1-0.2-0.3-0.2c-0.3,0-1-0.1-1.5-0.1
		c-1-0.1-1.2-0.9-1.3-1.9c-0.2-1.5-0.2-4.2-0.2-7.5v-2.9c0-0.2,0.1-0.3,0.2-0.3c0.6,0,4.2,0,5.1,0.1c1,0.1,1.6,0.8,1.7,1.2
		c0.1,0.4,0.2,0.9,0.2,1.2c0,0.2,0.1,0.3,0.2,0.3c0.2,0,0.2-0.4,0.2-0.7c0-0.3,0.1-1.6,0.1-2.3c0.1-1.1,0.3-1.7,0.3-1.9
		c0-0.2,0-0.3-0.2-0.3c-0.1,0-0.2,0.2-0.4,0.3c-0.3,0.5-0.7,0.6-1.5,0.6c-0.5,0-0.9,0-1.5,0l-4.3,0c-0.2,0-0.2-0.1-0.2-0.3v-9.6
		c0-0.3,0.1-0.4,0.3-0.4l5.2,0.1c1.3,0,2.1,0.7,2.3,1.1c0.2,0.5,0.3,1,0.3,1.3c0,0.2,0.1,0.4,0.2,0.4c0.2,0,0.2-0.2,0.3-0.4
		c0.1-0.4,0.1-1.9,0.2-2.3c0.1-1,0.3-1.4,0.3-1.6C275.7,131.4,275.6,131.2,275.5,131.2z"/>
	<path fill="#384751" d="M288.9,145.3c-0.7,0-0.9,0-0.9,0.3c0,0.2,0.2,0.2,0.4,0.2c0.2,0,0.5,0,0.7,0c4.8,0,8.3-3.3,8.3-8.2
		c0-1.8-0.9-3.4-1.7-4.1c-0.5-0.5-2.1-2-6.3-2c-1.6,0-3.5,0.1-4.2,0.1c-0.3,0-2.3-0.1-3.8-0.1c-0.4,0-0.5,0.1-0.5,0.3
		c0,0.1,0.1,0.2,0.3,0.2c0.3,0,0.9,0,1.1,0.1c1.1,0.2,1.4,0.8,1.4,2c0.1,1.1,0.1,2.1,0.1,7.5v6.1c0,3.3,0,6.1-0.2,7.5
		c-0.1,1-0.3,1.8-1,1.9c-0.3,0.1-0.7,0.1-1,0.1c-0.2,0-0.3,0.1-0.3,0.2c0,0.2,0.2,0.3,0.5,0.3c1,0,3.1-0.1,3.2-0.1
		c0.2,0,2.3,0.1,4.1,0.1c0.4,0,0.5-0.1,0.5-0.3c0-0.1-0.1-0.2-0.3-0.2c-0.3,0-1-0.1-1.5-0.1c-1-0.1-1.2-0.9-1.3-1.9
		c-0.2-1.5-0.2-4.2-0.2-7.5v-14.2c0-0.4,0.1-0.6,0.3-0.7c0.3-0.1,0.9-0.2,1.5-0.2c0.8,0,2.8-0.1,4.6,1.7c1.8,1.9,1.9,4.2,1.9,5.3
		C294.8,142.8,292.2,145.3,288.9,145.3z"/>
</g>
</svg>
